<svg xmlns="http://www.w3.org/2000/svg" width="15" height="30.427" viewBox="0 0 15 30.427"><path d="M1209.99-186.162a7.6,7.6,0,0,1,.1,10.706,7.527,7.527,0,0,1-10.682,0,7.6,7.6,0,0,1,.1-10.706l.4-.4a.209.209,0,0,1,.3,0l2.72,2.72a.209.209,0,0,1-.031.32,3.33,3.33,0,0,0-.275,5.314,3.3,3.3,0,0,0,4.313-.039,3.327,3.327,0,0,0,.173-4.866l-2.352-2.352v-.018l0,0-2.959-2.959,2.957-2.957,2.959,2.959.072.072Zm-8.2-2.286,2.957-2.957-.22-.22.013-.013-2.094-2.095a3.37,3.37,0,0,1-.1-4.7,3.327,3.327,0,0,1,4.911.107,3.441,3.441,0,0,1-.2,4.589l-.4.4a.209.209,0,0,0,0,.3l2.675,2.675a.209.209,0,0,0,.3,0l.364-.364a7.6,7.6,0,0,0,.1-10.706,7.527,7.527,0,0,0-10.681,0,7.6,7.6,0,0,0,.1,10.706Z" transform="translate(1212.249 -173.233) rotate(180)" fill="#cecece"/></svg>